<svg id="Capa_1" data-name="Capa 1" xmlns="http://www.w3.org/2000/svg" viewBox="0 0 141.73 141.73"><defs><style>.cls-1{fill:#dcbfff;}.cls-2{fill:#c595ff;}.cls-3{fill:#f9e478;}.cls-4{fill:#bb83ff;}.cls-5{fill:#cececc;}.cls-6{fill:#d5d5d3;}.cls-7{fill:#855db5;}</style></defs><g id="Filled_outline" data-name="Filled outline"><path class="cls-1" d="M111.26,70.87V83.62H85.75V70.87A4.25,4.25,0,0,0,90,66.62h0V62.36h17v4.25a4.25,4.25,0,0,0,4.24,4.26Z"/><path class="cls-2" d="M107.35,68.27a20.22,20.22,0,0,1-18.16.84,4.24,4.24,0,0,0,.81-2.5V62.36h17v4.25A4.11,4.11,0,0,0,107.35,68.27Z"/><path class="cls-3" d="M67.66,78.88l-5.3,13.25h17V124h38.27V92.13h14.88V83.62a12.75,12.75,0,0,0-12.75-12.75h-8.51l-2.38,3.18a13.32,13.32,0,0,1-22.56-2l-.57-1.14H79.5A12.76,12.76,0,0,0,67.66,78.88Z"/><path class="cls-1" d="M66.61,124h-17L62.36,92.13h17Z"/><path class="cls-1" d="M117.64,49.61h-4.25V36.85h4.25a6.38,6.38,0,0,1,0,12.76Z"/><path class="cls-1" d="M77.24,36.85H81.5V49.61H77.24a6.38,6.38,0,0,1,0-12.76Z"/><path class="cls-1" d="M90,19.84h14.88A12.76,12.76,0,0,1,117.64,32.6V46.42a20.2,20.2,0,0,1-40.4,0V32.6A12.76,12.76,0,0,1,90,19.84Z"/><path class="cls-4" d="M117.64,36.85,113,35.29a11.81,11.81,0,0,1-8.07-11.2V13.46a12.76,12.76,0,0,1,12.76,12.76Z"/><path class="cls-4" d="M104.88,13.46V24.09a50.42,50.42,0,0,1-13.41,6.34A50.65,50.65,0,0,1,76.8,32.6H73V26.22a17,17,0,0,1,17-17h8A7.69,7.69,0,0,1,104.88,13.46Z"/><path class="cls-3" d="M9.21,124H132.52v8.5H9.21Z"/><rect class="cls-1" x="9.21" y="55.98" width="72.29" height="51.03" rx="6.38"/><path class="cls-5" d="M45.35,107h8.51L51.73,94.25H45.35Z"/><path class="cls-6" d="M32.6,115.51H58.11V124H32.6Z"/><path class="cls-4" d="M45.35,124H24.09L36.85,94.25H51.73Z"/><path class="cls-6" d="M66.61,115.51H92.13V124H66.61Z"/><path class="cls-1" d="M117.64,92.13v17H90a8.5,8.5,0,0,0-8.5,8.51v4.25A2.12,2.12,0,0,0,83.62,124h34a14.89,14.89,0,0,0,14.88-14.89v-17Z"/><path class="cls-7" d="M119.77,68.74h-8.51a2.13,2.13,0,0,1-2.13-2.12h0V65.42a22.34,22.34,0,0,0,10-13.82A8.51,8.51,0,0,0,119.77,35V26.22a14.92,14.92,0,0,0-13.64-14.83A9.77,9.77,0,0,0,98,7.08H90A19.16,19.16,0,0,0,70.87,26.22V32.6A2.12,2.12,0,0,0,73,34.72h2.13V35a8.5,8.5,0,0,0,.6,16.6l.18.7L80,51.17a18.17,18.17,0,0,1-.63-4.75V34.66a52.44,52.44,0,0,0,23.84-7,13.92,13.92,0,0,0,9.07,9.67l3.23,1.08v8A18.06,18.06,0,0,1,87,61.15l-2.46,3.47a23,23,0,0,0,3.35,2v0a2.12,2.12,0,0,1-2.12,2.13H83.62V62.36a8.51,8.51,0,0,0-8.5-8.5H15.59a8.51,8.51,0,0,0-8.51,8.5v6.38h4.26V62.36a4.25,4.25,0,0,1,4.25-4.25H75.12a4.25,4.25,0,0,1,4.25,4.25v38.27a4.25,4.25,0,0,1-4.25,4.25H51.63L53.81,94.7a2.13,2.13,0,0,0-1.63-2.53,2.28,2.28,0,0,0-.45,0H36.85a2.1,2.1,0,0,0-2,1.29L30,104.88H15.59a4.25,4.25,0,0,1-4.25-4.25V73H7.08v27.64a8.51,8.51,0,0,0,8.51,8.5H28.16l-5.47,12.76H9.21A2.13,2.13,0,0,0,7.08,124v8.5a2.13,2.13,0,0,0,2.13,2.13H132.52a2.13,2.13,0,0,0,2.13-2.13V124a2.13,2.13,0,0,0-2.13-2.13h-3.65a17,17,0,0,0,5.78-12.76V107H130.4v2.12a12.78,12.78,0,0,1-12.76,12.76h-34v-4.25A6.4,6.4,0,0,1,90,111.26h27.64a2.13,2.13,0,0,0,2.13-2.13V94.25H130.4v8.51h4.25V83.62a14.9,14.9,0,0,0-14.88-14.88Zm0-22.32V39.55a4.25,4.25,0,0,1,1.55,5.8,4.1,4.1,0,0,1-.67.88,4,4,0,0,1-.9.68c0-.16,0-.33,0-.49ZM73,43.23a4.25,4.25,0,0,1,1.25-3,4.45,4.45,0,0,1,.88-.67v6.87c0,.16,0,.33,0,.49A4.25,4.25,0,0,1,73,43.23Zm29.77-20.29a48.32,48.32,0,0,1-26,7.53H75.12V28.1c18.2-2.38,24.62-8.61,24.89-8.88l-3-3a20.67,20.67,0,0,1-5.29,3.18,59.48,59.48,0,0,1-16.4,4.4,15,15,0,0,1,1.25-4c8-.22,12.07-2.24,12.26-2.33l-1.89-3.81a24.06,24.06,0,0,1-7.08,1.66,14.86,14.86,0,0,1,10.14-4h8A5.52,5.52,0,0,1,102.76,14Zm10.86,10.33A9.66,9.66,0,0,1,107,24.09V15.8a10.65,10.65,0,0,1,8.5,10.42V33.9ZM92,68.06a22.36,22.36,0,0,0,13-.62,6.4,6.4,0,0,0,1.81,3.69,6.81,6.81,0,0,0,1,.83l-.6.81a11.17,11.17,0,0,1-18.31-.6A6.41,6.41,0,0,0,92,68.06ZM79.37,117.64v4.25H68.74v-4.25Zm-4.51-8.51h.26a8.38,8.38,0,0,0,2.12-.26v4.52H73.16Zm-17,0H70.28l-1.7,4.26h-2a2.12,2.12,0,0,0-2.12,2.12v6.38H60.24v-6.38a2.13,2.13,0,0,0-2.13-2.12h-2Zm-7.13,0h2.55l-1.7,4.26H49.81ZM56,117.64v4.25H48l.92-4.25ZM38.25,96.38H49.1l-5.47,25.51H27.32Zm92.15,29.76v4.26H11.34v-4.26Zm0-36.14H119.77V83.62h-4.26V107H90a10.6,10.6,0,0,0-8.5,4.26v-5a8.48,8.48,0,0,0,2.12-5.62V73h.82a15.44,15.44,0,0,0,26.14,2.33L112.32,73h7.45A10.65,10.65,0,0,1,130.4,83.62Zm-23.56-6.16,1.86,3.82a23.4,23.4,0,0,1-21.89-.79l2.13-3.69a19.13,19.13,0,0,0,17.91.66Zm-70-15.1h-8.5V64.49h8.5Zm12.76-4.25v4.25H41.1V64.49Zm12.75,0v4.25h-8.5V64.49Zm12.76,4.25H66.61V64.49h8.51Zm-51-4.25v4.25h-8.5V64.49Z"/></g></svg>