<svg id="Capa_1" data-name="Capa 1" xmlns="http://www.w3.org/2000/svg" viewBox="0 0 141.73 141.73"><defs><style>.cls-1{fill:#bb83ff;}.cls-1,.cls-2,.cls-3,.cls-4,.cls-5{fill-rule:evenodd;}.cls-2{fill:#dcbfff;}.cls-3{fill:#f9e478;}.cls-4{fill:#95f7ff;}.cls-5{fill:#f17781;}.cls-6{fill:#855db5;}</style></defs><path class="cls-1" d="M70.87,31.25a9.55,9.55,0,0,0,9.54-9.55,9.3,9.3,0,0,0-.19-1.91,9.55,9.55,0,0,0-18.71,0,10.06,10.06,0,0,0-.19,1.91,9.55,9.55,0,0,0,9.55,9.55Z"/><path class="cls-2" d="M65.14,29.34a9.52,9.52,0,0,1-3.82-7.64,10.06,10.06,0,0,1,.19-1.91h-5a4.79,4.79,0,0,0-4.78,4.78v4.77Z"/><path class="cls-2" d="M80.41,21.7a9.52,9.52,0,0,1-3.82,7.64H90V24.57a4.79,4.79,0,0,0-4.77-4.78h-5A9.3,9.3,0,0,1,80.41,21.7Z"/><path class="cls-2" d="M47.69,45.06a6.18,6.18,0,0,0-12.36,0v3.09a6.18,6.18,0,0,0,12.36,0Z"/><path class="cls-3" d="M46.1,52.27a6.14,6.14,0,0,1-9.18,0,10.84,10.84,0,0,0-6.22,9.78v3.09H52.32V62.05a10.84,10.84,0,0,0-6.22-9.78Z"/><path class="cls-2" d="M47.69,80.86a6.18,6.18,0,0,0-12.36,0V84a6.18,6.18,0,0,0,12.36,0Z"/><path class="cls-1" d="M46.1,88.07a6.14,6.14,0,0,1-9.18,0,10.83,10.83,0,0,0-6.22,9.78v3.09H52.32V97.85A10.83,10.83,0,0,0,46.1,88.07Z"/><path class="cls-2" d="M106.4,45.06a6.18,6.18,0,0,0-12.36,0v3.09a6.18,6.18,0,0,0,12.36,0Z"/><path class="cls-4" d="M104.81,52.27a6.14,6.14,0,0,1-9.18,0,10.84,10.84,0,0,0-6.22,9.78v3.09H111V62.05a10.84,10.84,0,0,0-6.22-9.78Z"/><path class="cls-2" d="M106.4,80.86a6.18,6.18,0,0,0-12.36,0V84a6.18,6.18,0,0,0,12.36,0Z"/><path class="cls-5" d="M104.81,88.07a6.14,6.14,0,0,1-9.18,0,10.83,10.83,0,0,0-6.22,9.78v3.09H111V97.85A10.83,10.83,0,0,0,104.81,88.07Z"/><path class="cls-1" d="M70.87,100.94H12.16v4.77a4.78,4.78,0,0,0,4.77,4.77H111v-9.54H70.87Z"/><path class="cls-2" d="M111,100.94v9.54H124.8a4.78,4.78,0,0,0,4.78-4.77v-4.77H111Z"/><path class="cls-5" d="M52.32,65.14H70.87V31.25a9.49,9.49,0,0,1-5.73-1.91H16.93a4.79,4.79,0,0,0-4.77,4.77v31H30.7V62.05a10.84,10.84,0,0,1,6.22-9.78,6.16,6.16,0,0,1-1.59-4.12V45.06a6.18,6.18,0,0,1,12.36,0v3.09a6.11,6.11,0,0,1-1.59,4.12,10.84,10.84,0,0,1,6.22,9.78v3.09Z"/><path class="cls-4" d="M70.87,65.14H12.16v35.8H30.7V97.85a10.83,10.83,0,0,1,6.22-9.78A6.16,6.16,0,0,1,35.33,84V80.86a6.18,6.18,0,0,1,12.36,0V84a6.13,6.13,0,0,1-1.59,4.12,10.83,10.83,0,0,1,6.22,9.78v3.09H70.87V65.14Z"/><path class="cls-1" d="M70.87,31.25V65.14H89.41V62.05a10.84,10.84,0,0,1,6.22-9.78A6.11,6.11,0,0,1,94,48.15V45.06a6.18,6.18,0,0,1,12.36,0v3.09a6.11,6.11,0,0,1-1.59,4.12A10.84,10.84,0,0,1,111,62.05v3.09h18.55v-31a4.79,4.79,0,0,0-4.78-4.77H76.59a9.46,9.46,0,0,1-5.72,1.91Z"/><path class="cls-3" d="M89.41,65.14H70.87v35.8H89.41V97.85a10.83,10.83,0,0,1,6.22-9.78A6.11,6.11,0,0,1,94,84V80.86a6.18,6.18,0,0,1,12.36,0V84a6.13,6.13,0,0,1-1.59,4.12A10.83,10.83,0,0,1,111,97.85v3.09h18.55V65.14H89.41Z"/><path class="cls-2" d="M58.78,110.48H83l4.73,19.1H54.05Z"/><path class="cls-6" d="M124.8,27H92.35V24.57a7.17,7.17,0,0,0-7.16-7.16H82a11.93,11.93,0,0,0-22.26,0H56.55a7.17,7.17,0,0,0-7.16,7.16V27H16.93a7.17,7.17,0,0,0-7.16,7.16v71.6a7.17,7.17,0,0,0,7.16,7.16H55.74l-3.56,14.32H49.39a2.39,2.39,0,1,0,0,4.77h43a2.39,2.39,0,0,0,0-4.77H89.56L86,112.87h38.8a7.17,7.17,0,0,0,7.16-7.16V34.11A7.17,7.17,0,0,0,124.8,27ZM104,84a3.79,3.79,0,0,1-7.58,0V80.86a3.79,3.79,0,0,1,7.58,0Zm-8.65,7a8.55,8.55,0,0,0,9.73,0,8.37,8.37,0,0,1,3.55,6.86v.7H91.8v-.7A8.49,8.49,0,0,1,95.36,91Zm12.75-3.71a8.57,8.57,0,0,0,.67-3.33V80.86a8.56,8.56,0,1,0-17.12,0V84a8.57,8.57,0,0,0,.67,3.33A13.12,13.12,0,0,0,87,97.85v.7H73.25V86.62a2.39,2.39,0,1,0-4.77,0V98.55H54.71v-.7A13.12,13.12,0,0,0,49.4,87.28,8.4,8.4,0,0,0,50.08,84V80.86a8.57,8.57,0,0,0-17.13,0V84a8.57,8.57,0,0,0,.67,3.33,13.11,13.11,0,0,0-5.3,10.57v.7H14.54v-31H127.19v31H113.42v-.7A13.12,13.12,0,0,0,108.11,87.28ZM45.3,84a3.79,3.79,0,0,1-7.58,0V80.86a3.79,3.79,0,0,1,7.58,0Zm-8.65,7a8.55,8.55,0,0,0,9.73,0,8.37,8.37,0,0,1,3.55,6.86v.7H33.09v-.7A8.49,8.49,0,0,1,36.65,91ZM45.3,48.15a3.79,3.79,0,0,1-7.58,0V45.06a3.79,3.79,0,0,1,7.58,0Zm-8.65,7a8.5,8.5,0,0,0,9.73,0,8.37,8.37,0,0,1,3.55,6.86v.7H33.09v-.7a8.5,8.5,0,0,1,3.56-6.86Zm67.36-7a3.79,3.79,0,0,1-7.58,0V45.06a3.79,3.79,0,0,1,7.58,0Zm-8.65,7a8.5,8.5,0,0,0,9.73,0,8.37,8.37,0,0,1,3.55,6.86v.7H91.8v-.7a8.5,8.5,0,0,1,3.56-6.86Zm31.83-21.08V62.75H113.42v-.7a13.12,13.12,0,0,0-5.31-10.57,8.57,8.57,0,0,0,.67-3.33V45.06a8.56,8.56,0,0,0-17.12,0v3.09a8.57,8.57,0,0,0,.67,3.33A13.12,13.12,0,0,0,87,62.05v.7H73.25V33.4a11.92,11.92,0,0,0,4.08-1.67H124.8A2.39,2.39,0,0,1,127.19,34.11ZM87.57,24.57V27h-6a11.92,11.92,0,0,0,1.21-4.77h2.4A2.39,2.39,0,0,1,87.57,24.57Zm-16.7-10a7.16,7.16,0,1,1-7.16,7.16A7.18,7.18,0,0,1,70.87,14.54ZM54.16,27V24.57a2.39,2.39,0,0,1,2.39-2.39H59A11.75,11.75,0,0,0,60.15,27ZM14.54,34.11a2.39,2.39,0,0,1,2.39-2.38H64.4a11.92,11.92,0,0,0,4.08,1.67V62.75H54.71v-.7A13.12,13.12,0,0,0,49.4,51.48a8.4,8.4,0,0,0,.68-3.33V45.06a8.57,8.57,0,0,0-17.13,0v3.09a8.57,8.57,0,0,0,.67,3.33,13.11,13.11,0,0,0-5.3,10.57v.7H14.54Zm0,71.6v-2.39h94.1v4.78H16.93a2.39,2.39,0,0,1-2.39-2.39Zm70.1,21.48H57.1l3.55-14.32H81.08ZM124.8,108.1H113.42v-4.78h13.77v2.39a2.39,2.39,0,0,1-2.39,2.39Z"/><path class="cls-6" d="M70.87,24.09a2.39,2.39,0,0,0,0-4.77h0a2.39,2.39,0,1,0,0,4.77Z"/><path class="cls-6" d="M70.87,73.49a2.39,2.39,0,1,0,2.38,2.39h0A2.39,2.39,0,0,0,70.87,73.49Z"/></svg>