<?xml version="1.0" encoding="utf-8"?>
<!-- Generator: Adobe Illustrator 25.2.3, SVG Export Plug-In . SVG Version: 6.00 Build 0)  -->
<svg version="1.1" id="Capa_1" xmlns="http://www.w3.org/2000/svg" xmlns:xlink="http://www.w3.org/1999/xlink" x="0px" y="0px"
	 viewBox="0 0 273.4 222.4" style="enable-background:new 0 0 273.4 222.4;" xml:space="preserve">
<style type="text/css">
	.st0{fill:url(#SVGID_1_);}
	.st1{fill:#DB6F45;}
	.st2{opacity:0.17;fill:#383938;}
	.st3{fill:#E0EBF0;}
	.st4{fill:#BFCFD7;}
	.st5{fill:#4CBDC6;}
	.st6{fill:#4EBCBE;}
	.st7{fill:#7098A2;}
	.st8{fill:#9FBECC;}
	.st9{fill:#87AEBC;}
	.st10{fill:#FFFFFF;}
	.st11{fill:#0A76A5;}
	.st12{fill:#10546B;}
	.st13{fill:#F1885E;}
	.st14{fill:#FEE5C3;}
	.st15{fill:#FCD2A6;}
</style>
<g>
	<g>
		<g>
			<linearGradient id="SVGID_1_" gradientUnits="userSpaceOnUse" x1="0" y1="155.1762" x2="273.4016" y2="155.1762">
				<stop  offset="0" style="stop-color:#FEDC9D"/>
				<stop  offset="0.5687" style="stop-color:#FABF87"/>
				<stop  offset="1" style="stop-color:#F1885E"/>
			</linearGradient>
			<path class="st0" d="M169.1,88L169.1,88C166.2,88,2.9,88,0,88v134.4h169.1h41.7l13.7-49l48.9-11c0,0,0-62.5,0-74.4
				C270.5,88,172.1,88,169.1,88z"/>
		</g>
		<path id="XMLID_9_" class="st1" d="M210.9,222.4c7.6-7.3,54.9-52.7,62.5-60c-16.9,0-52.5,0-62.5,0L210.9,222.4z"/>
	</g>
	<ellipse class="st2" cx="137.2" cy="153.3" rx="105" ry="14.7"/>
	<g>
		<path class="st3" d="M221.8,117.6H51.6V2.9c0-1.6,1.3-2.9,2.9-2.9H219c1.6,0,2.9,1.3,2.9,2.9V117.6z"/>
		<path class="st4" d="M219,0h-21.4c1.6,0,2.9,1.3,2.9,2.9v97.8c0,1.9-1.5,3.4-3.4,3.4H51.6v13.5h170.3v-13.5V2.9
			C221.8,1.3,220.5,0,219,0z"/>
		<path class="st5" d="M64.3,95.9V14.5c0-1,0.8-1.7,1.7-1.7h141.3c1,0,1.7,0.8,1.7,1.7v81.4c0,1-0.8,1.7-1.7,1.7H66
			C65.1,97.7,64.3,96.9,64.3,95.9z"/>
		<path class="st6" d="M207.4,12.7h-6.9v75c0,1-0.8,1.7-1.7,1.7H64.3v6.4c0,1,0.8,1.7,1.7,1.7h141.3c1,0,1.7-0.8,1.7-1.7V14.5
			C209.1,13.5,208.3,12.7,207.4,12.7z"/>
		<path class="st7" d="M234.6,155.3H38.8c-2.2,0-4-1.8-4-4v-7.8h203.8v7.8C238.6,153.5,236.8,155.3,234.6,155.3z"/>
		<polygon class="st8" points="238.6,143.5 34.8,143.5 51.6,110.4 221.8,110.4 		"/>
		<path class="st9" d="M221.8,110.4h-24.1l11,21.8c1.2,2.4-0.5,5.3-3.3,5.3H37.8l-3.1,6h203.8L221.8,110.4z"/>
		<path class="st3" d="M163.7,143.5l-4-14.6c-0.3-1.2-1.4-2-2.6-2h-40.7c-1.2,0-2.3,0.8-2.6,2l-4,14.6H163.7z"/>
		<polygon class="st4" points="111.4,137.4 109.7,143.5 163.7,143.5 162,137.4 		"/>
	</g>
	<g>
		<g id="XMLID_14_">
			<g>
				<circle class="st10" cx="137.2" cy="55.2" r="36.1"/>
			</g>
		</g>
		<g id="XMLID_13_">
			<g>
				<path class="st11" d="M164.9,78.3c-6.6,7.9-16.6,13-27.7,13c-11.1,0-21.1-5-27.7-13c0-7.8,3.3-14.8,8.4-19.8l13.2-10.4h12.7
					l12.6,10.4C161.6,63.5,164.8,70.5,164.9,78.3z"/>
			</g>
		</g>
		<path class="st12" d="M156.4,58.5l-12.6-10.4H141l-13.8,12.6l-7.4-3.7l-1.8,1.4c-5.2,5-8.4,12-8.4,19.8c2.4,2.9,5.3,5.4,8.4,7.4
			c0.2-3.1,0.9-6,2-8.7c1.3-3.3,5-5,8.5-4c2.8,0.8,5.7,1.3,8.8,1.3c9.3,0,17.7-4.2,23.3-10.7C159.3,61.7,158,60,156.4,58.5z"/>
		<path class="st13" d="M133.1,66.9l-0.8,5.4l2.2,1.8l-3.8,16.3c0,0,8.6,2.5,12.8,0.3l-5.9-16.4l1.6-1.7l-0.4-5.6H133.1z"/>
		<circle class="st14" cx="137.2" cy="43.5" r="24.4"/>
		<path class="st15" d="M125.4,43.5c0-11.3,7.7-20.8,18.1-23.6c-2-0.5-4.2-0.8-6.3-0.8c-13.5,0-24.4,10.9-24.4,24.4
			c0,13.5,10.9,24.4,24.4,24.4c2.2,0,4.3-0.3,6.3-0.8C133.1,64.3,125.4,54.8,125.4,43.5L125.4,43.5z"/>
	</g>
</g>
</svg>
