<?xml version="1.0" encoding="utf-8"?>
<!-- Generator: Adobe Illustrator 25.2.3, SVG Export Plug-In . SVG Version: 6.00 Build 0)  -->
<svg version="1.1" id="Capa_1" xmlns="http://www.w3.org/2000/svg" xmlns:xlink="http://www.w3.org/1999/xlink" x="0px" y="0px"
	 viewBox="0 0 273.4 253.5" style="enable-background:new 0 0 273.4 253.5;" xml:space="preserve">
<style type="text/css">
	.st0{fill:url(#SVGID_1_);}
	.st1{fill:#DB6F45;}
	.st2{fill:#DDA879;}
	.st3{fill:#11A1C4;}
	.st4{fill:#0396C4;}
	.st5{fill:#0A76A5;}
	.st6{fill:#FFFFFF;}
	.st7{fill:#E9E8E8;}
	.st8{fill:#4CBDC6;}
	.st9{fill:#15A9A9;}
	.st10{fill:#FFFAE4;}
	.st11{fill:#A2D9F0;}
	.st12{fill:#F1885E;}
	.st13{fill:#E36336;}
	.st14{fill:#FEE5C3;}
	.st15{fill:#FCD2A6;}
	.st16{fill:#EA526F;}
	.st17{fill:#B6294B;}
	.st18{fill:#99A0A0;}
</style>
<g>
	<g>
		<g>
			<linearGradient id="SVGID_1_" gradientUnits="userSpaceOnUse" x1="0" y1="186.268" x2="273.4016" y2="186.268">
				<stop  offset="0" style="stop-color:#FEDC9D"/>
				<stop  offset="0.5687" style="stop-color:#FABF87"/>
				<stop  offset="1" style="stop-color:#F1885E"/>
			</linearGradient>
			<path class="st0" d="M169.1,119.1L169.1,119.1c-2.9,0-166.2,0-169.1,0v134.4h169.1h41.7l13.7-49l48.9-11c0,0,0-62.5,0-74.4
				C270.5,119.1,172.1,119.1,169.1,119.1z"/>
		</g>
		<path id="XMLID_111_" class="st1" d="M210.9,253.5c7.6-7.3,54.9-52.7,62.5-60c-16.9,0-52.5,0-62.5,0L210.9,253.5z"/>
	</g>
	<ellipse class="st2" cx="136.7" cy="189.9" rx="72.6" ry="9.1"/>
	<g>
		<g>
			<path class="st3" d="M107.6,131.9v41.4l3.4,5.3h53.1l2.1-5.3l0.5-41.4H107.6z"/>
			<path class="st4" d="M214.3,129.5H64.9L49.6,144v1.6c0,6.8,5.5,12.3,12.3,12.3h149.6c6.8,0,12.3-5.5,12.3-12.3V144L214.3,129.5z"
				/>
			<g>
				<path class="st5" d="M79.6,145.6v-16H64.9L49.6,144v1.6c0,6.8,5.5,12.3,12.3,12.3h30C85.1,157.9,79.6,152.4,79.6,145.6z"/>
				<g id="XMLID_110_">
					<g>
						<path class="st6" d="M223.8,55.7V144H49.6V55.7c0-6.8,5.5-12.3,12.3-12.3h149.6C218.3,43.4,223.8,48.9,223.8,55.7L223.8,55.7z
							"/>
					</g>
				</g>
				<path class="st7" d="M79.6,50.8c0-2.8,0.8-5.3,2.2-7.4H61.9c-6.8,0-12.3,5.5-12.3,12.3V144h30V50.8z"/>
				<path class="st8" d="M187.6,0H85.8c-6.1,0-11.1,5-11.1,11.1v13.1c0,6.1,5,11.1,11.1,11.1h36.5l11.4,11.4c1.7,1.7,4.4,1.7,6.1,0
					l11.4-11.4h36.5c6.1,0,11.1-5,11.1-11.1V11.1C198.7,5,193.8,0,187.6,0z"/>
				<g>
					<path class="st9" d="M102,24.3V11.1C102,5,106.9,0,113.1,0H85.8c-6.1,0-11.1,5-11.1,11.1v13.1c0,6.1,5,11.1,11.1,11.1h27.3
						C106.9,35.4,102,30.4,102,24.3z"/>
				</g>
				<circle class="st10" cx="136.9" cy="17.8" r="5.4"/>
				<circle class="st10" cx="114.8" cy="17.8" r="5.4"/>
				<circle class="st10" cx="92.8" cy="17.8" r="5.4"/>
				<circle class="st10" cx="158.9" cy="17.8" r="5.4"/>
				<circle class="st10" cx="181" cy="17.8" r="5.4"/>
				<g id="XMLID_109_">
					<g>
						<path class="st5" d="M166.2,173.3l7.6,11.4H100l7.6-11.4H166.2z"/>
					</g>
				</g>
			</g>
			<g>
				<path class="st4" d="M181.4,187.5h-89c-1.6,0-2.8-1.3-2.8-2.8c0-1.6,1.3-2.8,2.8-2.8h89c1.6,0,2.8,1.3,2.8,2.8
					C184.2,186.3,182.9,187.5,181.4,187.5z"/>
			</g>
			<g>
				<g id="XMLID_108_">
					<g>
						<circle class="st11" cx="105.9" cy="93.7" r="28"/>
					</g>
				</g>
				<g id="XMLID_107_">
					<g>
						<path class="st12" d="M127.4,111.6c-5.1,6.1-12.9,10.1-21.5,10.1s-16.4-3.9-21.5-10.1c0-6,2.5-11.5,6.6-15.3l10.2-8.1h9.9
							l9.7,8.1C124.8,100.2,127.3,105.6,127.4,111.6z"/>
					</g>
				</g>
				<path class="st13" d="M120.8,96.3l-9.7-8.1h-2.2L98.1,98l-5.7-2.8l-1.4,1.1c-4,3.9-6.5,9.3-6.6,15.3c1.9,2.2,4.1,4.2,6.5,5.7
					c0.1-2.4,0.7-4.7,1.5-6.8c1-2.6,3.9-3.9,6.6-3.1c2.2,0.7,4.5,1,6.8,1c7.2,0,13.7-3.2,18.1-8.3C123.1,98.7,122,97.4,120.8,96.3z"
					/>
				<circle class="st14" cx="105.9" cy="84.6" r="18.9"/>
				<path class="st15" d="M96.8,84.6c0-8.8,6-16.1,14-18.3c-1.6-0.4-3.2-0.6-4.9-0.6c-10.5,0-18.9,8.5-18.9,18.9
					c0,10.5,8.5,18.9,18.9,18.9c1.7,0,3.4-0.2,4.9-0.6C102.7,100.8,96.8,93.4,96.8,84.6L96.8,84.6z"/>
			</g>
			<g>
				<g id="XMLID_106_">
					<g>
						<circle class="st11" cx="173.8" cy="93.7" r="28"/>
					</g>
				</g>
				<g id="XMLID_28_">
					<g>
						<path class="st16" d="M195.3,111.6c-5.1,6.1-12.9,10.1-21.5,10.1c-8.6,0-16.4-3.9-21.5-10.1c0-6,2.5-11.5,6.6-15.3l10.2-8.1
							h9.9l9.7,8.1C192.8,100.2,195.3,105.6,195.3,111.6z"/>
					</g>
				</g>
				<path class="st17" d="M188.7,96.3l-9.7-8.1h-2.2L166,98l-5.7-2.8l-1.4,1.1c-4,3.9-6.5,9.3-6.6,15.3c1.9,2.2,4.1,4.2,6.5,5.7
					c0.1-2.4,0.7-4.7,1.5-6.8c1-2.6,3.9-3.9,6.6-3.1c2.2,0.7,4.5,1,6.8,1c7.2,0,13.7-3.2,18.1-8.3C191,98.7,189.9,97.4,188.7,96.3z"
					/>
				<circle class="st14" cx="173.8" cy="84.6" r="18.9"/>
				<path class="st15" d="M164.7,84.6c0-8.8,6-16.1,14-18.3c-1.6-0.4-3.2-0.6-4.9-0.6c-10.5,0-18.9,8.5-18.9,18.9
					c0,10.5,8.5,18.9,18.9,18.9c1.7,0,3.4-0.2,4.9-0.6C170.7,100.8,164.7,93.4,164.7,84.6L164.7,84.6z"/>
			</g>
		</g>
		<path class="st18" d="M127.1,131.5h-42c-1.4,0-2.5-1.1-2.5-2.5l0,0c0-1.4,1.1-2.5,2.5-2.5h42c1.4,0,2.5,1.1,2.5,2.5l0,0
			C129.6,130.3,128.5,131.5,127.1,131.5z"/>
		<path class="st18" d="M196.2,131.5h-42c-1.4,0-2.5-1.1-2.5-2.5l0,0c0-1.4,1.1-2.5,2.5-2.5h42c1.4,0,2.5,1.1,2.5,2.5l0,0
			C198.7,130.3,197.6,131.5,196.2,131.5z"/>
	</g>
</g>
</svg>
