<?xml version="1.0" encoding="utf-8"?>
<!-- Generator: Adobe Illustrator 25.2.3, SVG Export Plug-In . SVG Version: 6.00 Build 0)  -->
<svg version="1.1" id="Capa_1" xmlns="http://www.w3.org/2000/svg" xmlns:xlink="http://www.w3.org/1999/xlink" x="0px" y="0px"
	 viewBox="0 0 273.4 241.2" style="enable-background:new 0 0 273.4 241.2;" xml:space="preserve">
<style type="text/css">
	.st0{fill:url(#SVGID_1_);}
	.st1{fill:#EA526F;}
	.st2{fill:#B6294B;}
	.st3{fill:#FEE5C3;}
	.st4{fill:#FCD2A6;}
	.st5{opacity:0.17;fill:#383938;}
	.st6{fill:#87AEBC;}
	.st7{fill:#E0EBF0;}
	.st8{fill:#BFCFD7;}
	.st9{fill:#FFFFFF;}
	.st10{fill:#DB6F45;}
	.st11{fill:#4CBDC6;}
</style>
<g>
	<g>
		<g>
			<linearGradient id="SVGID_1_" gradientUnits="userSpaceOnUse" x1="0" y1="174.0217" x2="273.4016" y2="174.0217">
				<stop  offset="0" style="stop-color:#FEDC9D"/>
				<stop  offset="0.5687" style="stop-color:#FABF87"/>
				<stop  offset="1" style="stop-color:#F1885E"/>
			</linearGradient>
			<path class="st0" d="M169.1,106.8L169.1,106.8c-2.9,0-166.2,0-169.1,0v134.4h169.1h41.7l13.7-49l48.9-11c0,0,0-62.5,0-74.4
				C270.5,106.8,172.1,106.8,169.1,106.8z"/>
		</g>
	</g>
	<g>
		<g id="XMLID_17_">
			<g>
				<path class="st1" d="M240.7,129.4c-14.5,17.3-36.2,28.3-60.5,28.3s-46.1-11-60.5-28.3c0.1-17,7.2-32.3,18.5-43.2L167,63.5h27.8
					l27.5,22.7C233.6,97.1,240.7,112.4,240.7,129.4z"/>
			</g>
		</g>
		<path class="st2" d="M222.3,86.2l-27.5-22.7h-6.3l-30.2,27.6l-16.1-8l-4,3.1c-11.3,10.9-18.4,26.3-18.5,43.2
			c5.3,6.3,11.5,11.8,18.4,16.2c0.4-6.7,1.9-13.1,4.4-19.1c3-7.2,11-11,18.5-8.8c6.1,1.8,12.6,2.8,19.2,2.8c20.4,0,38.6-9.1,51-23.5
			C228.6,93.1,225.6,89.5,222.3,86.2z"/>
		<circle class="st3" cx="180.2" cy="53.4" r="53.4"/>
		<path class="st4" d="M154.5,53.4c0-24.7,16.8-45.4,39.5-51.5C189.7,0.6,185,0,180.2,0c-29.5,0-53.4,23.9-53.4,53.4
			c0,29.5,23.9,53.4,53.4,53.4c4.8,0,9.5-0.6,13.9-1.8C171.3,98.8,154.5,78.1,154.5,53.4L154.5,53.4z"/>
	</g>
	<path class="st1" d="M220,117.4l17.6-2.8c0,0,11.4,41.5,0,67.1h-49.4l-3.7-33.5l22.1-14.7L220,117.4z"/>
	<ellipse class="st5" cx="129.4" cy="181.7" rx="91.7" ry="9.1"/>
	<g>
		<path class="st6" d="M58.7,181.7h16.8v-16.8H58.7c-3.1,0-5.6,2.5-5.6,5.6v5.6C53.1,179.2,55.6,181.7,58.7,181.7z"/>
		<path class="st6" d="M197.9,181.7h16.8c3.1,0,5.6-2.5,5.6-5.6v-5.6c0-3.1-2.5-5.6-5.6-5.6h-16.8V181.7z"/>
		<path class="st7" d="M203.5,181.7H69.9V97.3c0-3.1,2.5-5.6,5.6-5.6h122.4c3.1,0,5.6,2.5,5.6,5.6v19.6l-11.2,15.6l11.2,15.6V181.7z
			"/>
		<path class="st8" d="M203.5,97.3v84.4h-16.8V97.3c0-3.1-2.5-5.6-5.6-5.6h16.8C201,91.7,203.5,94.2,203.5,97.3z"/>
		<path class="st9" d="M148.3,136.7c0,6.4-5.2,11.6-11.6,11.6c-6.4,0-11.6-5.2-11.6-11.6c0-6.4,5.2-11.6,11.6-11.6
			C143.1,125.1,148.3,130.3,148.3,136.7z"/>
	</g>
	<path id="XMLID_15_" class="st10" d="M210.9,241.2c7.6-7.3,54.9-52.7,62.5-60c-16.9,0-52.5,0-62.5,0L210.9,241.2z"/>
	<ellipse class="st5" cx="45.2" cy="157.7" rx="19.6" ry="1.9"/>
	<rect x="51.7" y="101.6" class="st11" width="5.8" height="22.3"/>
	<polygon class="st3" points="54.7,95.4 57.6,101.6 51.7,101.6 	"/>
	<rect x="32" y="122.5" class="st7" width="26.4" height="35.3"/>
	<rect x="45.2" y="122.5" class="st8" width="13.2" height="35.3"/>
</g>
</svg>
